<?xml version="1.0" encoding="UTF-8" standalone="no"?>
<!-- Created with Inkscape (http://www.inkscape.org/) -->

<svg
   width="30.13612mm"
   height="24.719543mm"
   viewBox="0 0 30.13612 24.719543"
   version="1.1"
   id="svg5"
   inkscape:version="1.2 (dc2aedaf03, 2022-05-15)"
   sodipodi:docname="logo.svg"
   xmlns:inkscape="http://www.inkscape.org/namespaces/inkscape"
   xmlns:sodipodi="http://sodipodi.sourceforge.net/DTD/sodipodi-0.dtd"
   xmlns="http://www.w3.org/2000/svg"
   xmlns:svg="http://www.w3.org/2000/svg">
  <sodipodi:namedview
     id="namedview7"
     pagecolor="#ffffff"
     bordercolor="#666666"
     borderopacity="1.0"
     inkscape:showpageshadow="2"
     inkscape:pageopacity="0.0"
     inkscape:pagecheckerboard="0"
     inkscape:deskcolor="#d1d1d1"
     inkscape:document-units="mm"
     showgrid="false"
     inkscape:zoom="0.8222573"
     inkscape:cx="240.19246"
     inkscape:cy="243.84095"
     inkscape:window-width="1884"
     inkscape:window-height="1020"
     inkscape:window-x="16"
     inkscape:window-y="40"
     inkscape:window-maximized="1"
     inkscape:current-layer="layer1" />
  <defs
     id="defs2" />
  <g
     inkscape:label="Layer 1"
     inkscape:groupmode="layer"
     id="layer1"
     transform="translate(-41.386108,-32.71788)">
    <path
       style="fill:#000000;stroke:#000000;stroke-width:0.1;stroke-opacity:0.52758;paint-order:stroke fill markers"
       id="path740"
       d="m 48.837148,34.718005 c -0.117753,0.196845 -0.258204,0.381781 -0.353263,0.590535 -0.630984,1.385681 -1.071817,3.365634 -1.222804,4.87182 -0.04583,0.457195 -0.03241,0.918401 -0.04862,1.377601 0.06857,0.433199 0.09086,0.87631 0.205708,1.299596 0.434282,1.600536 1.597041,2.956867 2.886038,3.951179 0.326075,0.251531 0.680921,0.463375 1.021384,0.69506 1.61726,0.927788 3.496646,1.55651 5.37487,1.645259 0.334243,0.0158 0.669079,-0.01423 1.003618,-0.02132 0.720259,-0.118902 1.349324,-0.161126 2.007616,-0.526347 1.705329,-0.946121 3.41281,-1.898147 5.030001,-2.98809 0.437825,-0.295082 0.744099,-0.749811 1.097751,-1.141849 1.160235,-1.286161 1.361377,-1.617549 2.431323,-3.030294 0.954383,-1.527903 3.21828,-4.248912 3.201363,-6.154825 -0.0019,-0.20832 -0.08604,-0.407675 -0.129061,-0.611513 -0.109953,-0.153471 -0.188601,-0.335163 -0.329864,-0.460417 -1.020072,-0.90446 -2.850288,-0.524171 -4.02209,-0.290449 -2.016369,0.613021 -3.92756,1.562502 -5.736424,2.636824 -5.568907,3.307495 -3.857778,2.126313 -6.99327,4.419222 -3.213198,2.367121 -5.74512,5.432165 -8.087233,8.626557 -1.764001,2.44472 -3.241749,5.077187 -4.67387,7.724812 0,0 4.202205,-1.885749 4.202205,-1.885749 v 0 c 1.409213,-2.625477 2.864339,-5.234808 4.636945,-7.637569 2.357247,-3.165559 4.920244,-6.179449 8.148941,-8.500329 0.524481,-0.374362 2.20917,-1.228281 1.573438,-1.123082 -0.880687,0.145732 -1.551305,0.889643 -2.366108,1.254249 -0.526799,0.235733 0.991102,-0.592389 1.499108,-0.866283 0.593153,-0.319804 2.218507,-1.108398 2.869798,-1.378712 0.39058,-0.162107 0.7949,-0.28889 1.192352,-0.433334 1.077706,-0.252802 2.115532,-0.497682 3.218307,-0.237075 0.14518,0.03431 0.297008,0.06477 0.424135,0.142838 0.09915,0.06088 0.154988,0.173569 0.232482,0.260353 0.02777,0.148804 0.0874,0.295095 0.0833,0.446413 -0.01476,0.544835 -0.257307,1.158028 -0.476202,1.630013 -0.699598,1.508474 -1.675435,2.871062 -2.628747,4.223946 -0.973696,1.235969 -1.432081,1.891543 -2.523524,3.000018 -0.376206,0.382074 -1.700133,1.237175 -1.185228,1.087575 1.089417,-0.316519 2.014596,-1.045509 2.996457,-1.613808 0.299127,-0.173135 -0.61771,0.315685 -0.945089,0.426479 -0.310486,0.10508 -0.639273,0.145264 -0.958908,0.217898 -0.321636,0.02566 -0.64225,0.076 -0.964904,0.07697 -1.828747,0.0055 -3.679486,-0.583935 -5.274659,-1.43316 -1.619396,-1.06322 -3.20525,-2.3323 -3.721381,-4.306827 -0.103341,-0.395348 -0.117345,-0.808794 -0.176016,-1.213191 0.02318,-0.440603 0.01788,-0.883626 0.06951,-1.321805 0.211863,-1.798048 0.728927,-3.844587 1.825411,-5.310476 0,0 -4.414798,1.881304 -4.414798,1.881304 z" />
  </g>
</svg>
